<svg version="1.1" id="Layer_1" xmlns="http://www.w3.org/2000/svg" xmlns:xlink="http://www.w3.org/1999/xlink" x="0px" y="0px"
	 width="100%" viewBox="0 0 304 304" enable-background="new 0 0 304 304" xml:space="preserve">
<path fill="#000000" opacity="1.000000" stroke="none" 
	d="
M163.998795,41.998055 
	C177.473969,34.932255 191.117081,28.370113 207.443008,26.927916 
	C206.074081,30.230202 203.740555,30.407990 201.888931,31.206223 
	C187.408142,37.448837 173.734634,44.779171 163.357437,57.212708 
	C158.696030,62.797813 155.480240,69.161148 152.112732,75.449310 
	C149.990829,79.411522 152.708878,82.554367 157.265091,82.184235 
	C163.533386,81.675026 168.538361,78.584641 173.387451,74.929543 
	C186.954712,64.702980 200.095764,53.899929 214.207336,44.409870 
	C219.367920,40.939365 224.639999,37.550362 231.017761,36.450985 
	C205.039932,60.062225 177.430649,81.677002 150.611374,104.398285 
	C161.495178,107.320877 171.678665,106.230553 181.777176,102.918121 
	C208.793533,94.056412 226.487000,75.671562 236.985626,49.635670 
	C239.089691,44.417725 242.338150,39.661236 245.207748,34.420265 
	C247.905167,36.983715 247.265594,39.408417 246.916931,41.597443 
	C245.895752,48.008976 244.747482,54.436451 241.630630,60.233944 
	C240.008957,63.250332 240.546295,65.146538 243.139771,67.483635 
	C263.524536,85.853249 276.505615,108.516029 280.403076,135.746964 
	C284.217407,162.397141 278.860443,187.434982 264.499664,210.344482 
	C244.942261,241.544037 216.662979,259.421631 180.280289,263.893524 
	C158.256821,266.600525 137.189911,262.288574 117.444168,251.968704 
	C112.876663,249.581573 111.061417,245.201065 109.752090,240.746521 
	C107.737762,233.893478 106.884674,226.912292 110.114014,219.842804 
	C110.672592,220.370911 111.076996,220.568054 111.097191,220.798813 
	C112.400703,235.694321 123.528183,241.162201 135.345947,245.567734 
	C181.403687,262.737518 232.143250,241.345245 255.552765,200.126663 
	C278.746185,159.288574 269.787079,109.910034 237.025467,78.969170 
	C235.832581,77.842567 234.557724,76.802780 233.229523,75.642578 
	C229.038437,78.069382 230.369919,80.591583 232.892899,82.768044 
	C243.369644,91.805870 247.009384,113.537880 237.948257,128.600281 
	C233.747391,135.583435 227.298599,139.900314 220.220734,143.934036 
	C221.045944,145.507172 222.792282,145.835434 224.187256,146.332672 
	C255.201187,157.387619 257.093170,193.480804 239.892044,214.044937 
	C228.459930,227.712143 213.233978,233.956558 196.139496,235.126038 
	C172.882812,236.717072 149.542084,235.909256 126.236771,235.435638 
	C124.943008,235.409348 123.598343,235.119873 122.384209,234.666656 
	C120.966194,234.137344 120.598267,232.808990 120.623711,231.376617 
	C120.648064,230.005630 121.410629,229.110733 122.659485,228.889862 
	C134.451157,226.804611 138.199661,218.689499 138.333282,207.948120 
	C138.431992,200.014191 138.352692,192.078049 138.352692,183.385345 
	C133.116913,185.176483 128.953110,187.562653 124.973984,189.987946 
	C125.270920,191.360764 125.911179,191.577164 126.574608,191.600510 
	C130.218765,191.728775 132.700363,192.991577 132.575043,197.210907 
	C132.422043,202.362732 130.462921,204.964157 126.088326,205.316025 
	C121.598793,205.677155 118.637825,208.715088 115.302086,211.153442 
	C114.036591,212.078491 112.640625,213.886505 110.979271,212.367142 
	C109.409309,210.931335 110.137154,208.911911 111.049118,207.279861 
	C112.131790,205.342316 114.094429,203.867569 114.398163,200.197601 
	C108.022911,207.295181 105.608818,214.882904 104.343613,222.948090 
	C101.570885,240.623077 108.503349,254.772171 120.518280,267.039795 
	C122.721794,269.289642 124.960510,271.836914 121.942070,274.699371 
	C118.872086,277.610687 116.041504,275.579346 113.770599,273.099304 
	C106.366318,265.013092 100.961365,255.668274 96.963303,245.512924 
	C95.592262,242.030396 93.759613,239.053162 90.969078,236.488281 
	C71.693748,218.771515 59.371872,196.994629 54.728916,171.283432 
	C48.395401,136.210449 58.494244,105.389221 80.965424,78.402939 
	C98.896454,56.869057 122.064728,43.882645 149.454559,38.356369 
	C153.194702,37.601738 157.011230,37.183594 160.810135,36.774288 
	C164.417389,36.385632 165.952820,37.721794 163.733856,41.615578 
	C159.234390,41.375038 155.584885,42.550552 153.044830,45.726246 
	C148.852615,50.967590 143.117279,53.271603 137.025528,55.194134 
	C114.564247,62.282841 97.215729,76.259552 83.942940,95.397453 
	C73.712425,110.148712 68.121857,126.696136 65.878418,144.496460 
	C65.008476,151.398880 67.510002,156.279099 74.494629,158.720352 
	C71.743935,142.814224 75.532394,128.347000 83.723305,114.827133 
	C85.461708,111.957726 87.624725,109.439552 90.071045,107.161385 
	C91.535217,105.797852 93.314781,105.263077 95.131981,106.132530 
	C97.084633,107.066811 97.179482,108.813446 96.852776,110.830780 
	C96.438988,113.385849 96.412872,116.003708 96.219559,118.594482 
	C99.947266,101.653160 109.562073,88.153381 121.310196,76.176750 
	C118.974098,73.627068 115.635841,74.569374 114.363663,71.674889 
	C115.423615,68.404709 118.388153,66.712517 121.183624,66.991081 
	C127.881790,67.658539 132.854446,64.839729 137.857941,61.042828 
	C146.444412,54.526993 155.272278,48.329304 163.998795,41.998055 
M165.156235,211.051544 
	C165.208405,215.880234 167.509155,219.446304 172.319321,219.706940 
	C181.584900,220.208969 190.928680,220.773453 199.999084,217.665512 
	C212.796570,213.280518 221.347366,201.944107 221.869858,188.371414 
	C222.478851,172.552444 216.453735,162.455948 202.730988,156.614090 
	C192.431335,152.229492 181.498856,153.539642 170.737213,153.225418 
	C166.658585,153.106339 165.167389,154.544785 165.195663,158.704208 
	C165.312256,175.848907 165.160538,192.995422 165.156235,211.051544 
M143.713470,65.207703 
	C137.370453,71.752838 129.820084,77.266289 126.045441,86.007812 
	C125.601852,87.035080 124.885071,88.508102 123.571922,88.048088 
	C120.153397,86.850494 119.156197,89.642319 117.721588,91.422028 
	C105.139900,107.030251 100.942665,125.089409 102.352501,144.750107 
	C102.495087,146.738525 102.929893,148.560440 104.862762,150.078903 
	C105.441711,149.101913 105.863403,148.423279 106.253586,147.726974 
	C114.102654,133.719955 123.197479,120.580215 134.486359,109.138542 
	C139.115067,104.447189 143.030487,99.908836 141.799774,92.767258 
	C141.641953,91.851471 142.159851,90.823921 142.342667,89.844032 
	C144.344437,79.114891 146.175125,68.327988 154.000305,58.842224 
	C149.108093,59.723537 147.010910,62.742924 143.713470,65.207703 
M133.690842,121.171097 
	C120.214836,136.869614 109.765732,154.203690 104.822441,174.541122 
	C106.246666,173.150284 107.375793,171.574448 108.484070,169.984070 
	C117.970779,156.370697 129.461945,145.053635 144.799210,138.088898 
	C154.493591,133.686615 164.110779,129.112762 173.834396,124.776863 
	C181.595367,121.316124 187.874619,116.117691 193.317917,109.576157 
	C192.080826,108.852730 191.394699,109.506088 190.650146,109.771545 
	C178.372223,114.149048 165.319016,117.416199 153.091263,112.819534 
	C142.692657,108.910477 139.110565,114.864487 133.690842,121.171097 
M108.092171,197.695526 
	C113.371574,189.023849 120.960640,183.020981 130.046417,178.777832 
	C143.136902,172.664459 151.943741,163.020111 155.556610,147.462097 
	C149.222687,155.460632 140.833755,157.379929 132.891098,160.048615 
	C126.618103,162.156311 121.240204,165.394394 116.461342,170.041000 
	C111.128059,175.226669 107.554672,181.470871 103.609322,187.639694 
	C98.141823,196.188507 99.809860,205.071625 100.071213,214.041336 
	C102.922974,208.845901 104.505791,203.207748 108.092171,197.695526 
M184.262482,138.610046 
	C187.079819,138.351868 189.899017,138.112259 192.714188,137.832230 
	C203.669785,136.742447 211.168823,131.065430 213.937042,120.390236 
	C215.760101,113.359909 216.132599,106.061691 211.024460,99.084236 
	C203.260406,105.402283 200.315201,114.855850 193.127762,120.972214 
	C186.016098,127.024109 177.834320,131.336884 169.628220,136.585892 
	C174.400665,139.359299 178.942841,138.469498 184.262482,138.610046 
M89.688011,123.907776 
	C89.474487,122.492088 90.140877,120.969818 89.215874,119.592026 
	C77.745293,133.527679 77.472137,166.317871 92.709412,187.730988 
	C94.622253,180.764313 95.580872,173.803131 98.289749,167.388412 
	C99.905655,163.561859 99.513069,160.128052 97.929199,156.385620 
	C93.644325,146.261154 90.331871,135.839478 89.688011,123.907776 
M76.169556,197.397141 
	C80.632950,206.366058 85.721291,214.968018 90.949005,223.644058 
	C94.784233,199.351227 80.850197,182.833710 67.164597,166.172729 
	C67.718681,177.055954 70.987160,187.114365 76.169556,197.397141 
z"/>
</svg>